<svg xmlns="http://www.w3.org/2000/svg" viewBox="0 0 2504.06 3333.33" shape-rendering="geometricPrecision" text-rendering="geometricPrecision" image-rendering="optimizeQuality" fill-rule="evenodd" clip-rule="evenodd"><path d="M1252.04 1874.64l97.69 238.76 257.25 19.13-196.86 166.7 61.3 250.57-219.38-135.72-219.38 135.72 61.3-250.57-196.89-166.7 257.27-19.13 97.7-238.76zm18.62-1776.99c8.78-44.48 31.69-73.06 63.11-87.57 25.53-11.8 55.21-13 86.12-4.85 26.84 7.05 55.07 21.39 82.12 42 73.24 55.74 141.79 160.78 150.57 292.11 2.69 40.37 1.95 83.61-1.88 129.4-2.52 30.28-6.48 62.07-11.73 95.3h311.52l1.45.15c50.64 1.98 99.69 14.3 140.98 35.98 35.69 18.7 65.83 44.3 86.77 76.24 21.53 32.83 33.33 71.85 31.59 116.44-1.31 33.11-10.16 69.02-28.22 107.33 10.37 43.13 15.08 89.35 8.46 129.9-5.59 34.5-19.01 65.16-43.13 87.9 1.24 57.01-6.38 104.78-21.71 146.15-15.76 42.49-39.38 77.77-69.69 109-2.58 27.26-7.05 53.37-13.95 77.84-8.65 30.64-21.18 58.79-38.81 83.61l-.07-.04c-53.12 74.89-95.62 73.2-162.89 70.44-9.35-.35-19.41-.78-35.03-.78l-609.42-.01c-54.86 0-97.89-7.9-137.26-27.58-38.94-19.44-72.17-49.47-107.65-93.92l-9.1-25.85V746.11l30.91-8.31c78.61-21.25 140.41-88.39 188.43-168.81 49.36-82.69 84-179.58 107.69-257.83v-205.5l.81-7.97.01-.01zM355.04 671.83h454.15c34.35 0 62.47 28.08 62.47 62.43v830.31c0 34.35-28.11 62.47-62.47 62.47l-454.15-.01c-34.36 0-62.44-28.11-62.44-62.46V734.26c0-34.35 28.08-62.43 62.43-62.43h.01zm1013.52-586.3c-6.76 3.12-12.22 10.98-15.44 24.33v207.17l-1.8 11.9c-25.11 83.89-62.67 190.06-117.96 282.63-51.95 87.04-119.52 161.76-207.27 196.29v634.19c24.08 28.55 46.28 47.94 70.54 60.06 26.81 13.39 58.35 18.8 100.18 18.8l609.43.01c10.87 0 25.06.57 38.28 1.1 39.91 1.63 65.09 2.65 92.07-35.41v-.18c11.69-16.5 20.26-36.05 26.45-57.93 6.58-23.34 10.41-49.22 12.32-76.84l12.85-27.34c26.81-25.38 47.38-54.04 60.37-89.13 13.43-36.19 19.2-79.82 15.97-134.4l-1.45-24.68 20.96-13.03c14.31-8.89 22.13-25.75 25.5-46.33 5.31-32.71-.25-72.98-10.52-110.3l3.26-30.06c16.93-32.33 25.03-61.19 26.03-86.47.98-26.2-5.8-48.98-18.24-67.96-13.06-19.9-32.36-36.11-55.52-48.3-30.03-15.72-66.19-24.8-104.07-26.45v.1l-410.99-.01 9.28-49.26c8.96-47.63 15.37-93.07 18.98-136.13 3.55-42.21 4.25-81.31 1.88-117.04-7.02-104.89-60.72-188.01-118.07-231.63-18.26-13.91-36.43-23.37-52.83-27.7-12.36-3.22-22.8-3.4-30.18 0h-.01zM803.5 2658.18l97.69 238.76 257.24 19.13-196.86 166.7 61.3 250.57-219.38-135.72-219.38 135.72 61.3-250.57-196.88-166.7 257.26-19.13 97.7-238.76zm897.07 0l97.69 238.76 257.24 19.13-196.86 166.7 61.3 250.57-219.38-135.72-219.38 135.72 61.3-250.57-196.89-166.7 257.27-19.13 97.7-238.76zm448.54-783.54l97.69 238.76 257.24 19.13-196.86 166.7 61.3 250.57-219.38-135.72-219.38 135.72 61.3-250.57-196.88-166.7 257.26-19.13 97.7-238.76zm-1794.15 0l97.69 238.76 257.24 19.13-196.86 166.7 61.3 250.57-219.38-135.72-219.38 135.72 61.3-250.57-196.89-166.7 257.27-19.13 97.7-238.76z"/></svg>