<svg xmlns="http://www.w3.org/2000/svg" viewBox="0 0 330771 333334" shape-rendering="geometricPrecision" text-rendering="geometricPrecision" image-rendering="optimizeQuality" fill-rule="evenodd" clip-rule="evenodd"><path d="M254449 97725c0 3074-2493 5567-5567 5567s-5567-2493-5567-5567V76050c0-8496-2204-17161-6004-25099-3952-8255-9613-15721-16311-21410-14285-12133-33040-18240-51903-18444-19091-207-38234 5617-52930 17340-7106 5669-13595 13084-18119 21381-3937 7221-6369 15107-6369 23051v25065l153-46 5008 6210c-388-9962-429-20648 4-30063 322-3225 939-6452 1841-9675 8123-29028 41232-45987 70030-44409 22298 1222 43252 9373 56474 24618 18526 21362 13747 47660 13121 73718v-2c4143 1262 6796 3889 7884 8143 1203 4708-103 11350-4095 20408l-11-6c-72 165-157 327-252 486l-17026 28042c-6561 10807-13225 21641-22119 29967l-259 241c1028 1613 2157 3429 3344 5336 2777 4465 5882 9456 8886 13728 18700 14076 66569 17312 84774 27465 5963 3324 11353 7559 15687 13283 10728 14161 11552 33743 15648 51034-956 10188-6738 16057-18111 16925H18108C6737 332469 955 326600-1 316412c4096-17291 4919-36874 15648-51034 4336-5726 9719-9957 15687-13283 18217-10162 66127-13392 84804-27487 2917-6507 5967-16621 7856-22900l39-128h1l737-2415c88-287 204-555 346-800-5353-6374-9945-13522-14373-20567l-14621-23247c-1102-70-2198-274-3291-618-11712-3685-21444-29730-19528-42014 1086-6966 3563-9476 7541-10994-193-565-298-1170-298-1800V72871c0-9868 2963-19558 7760-28357 5266-9658 12764-18246 20945-24772C125972 6404 147642-223 169184 10c21374 231 42684 7202 58992 21053 7867 6682 14509 15437 19138 25107 4516 9433 7135 19748 7135 29883v21675zm-57382 112275c-8150 5956-17944 9677-30450 9644-14487-36-25394-5573-34339-13753-651-595-1290-1203-1918-1823-2477 8232-6848 22704-10937 28941 4715 27130 15230 46514 24799 67163l13181-45750c-1687-2844-2467-5340-2578-7484-6757 3805-14016 6309-21582 8006-8248-9376-8941-19192 0-29578 10128 2556 19413 6890 27974 12757 2042-678 4345-848 6554-500 9083-6535 20755-9121 30933-13987 12066 11749 10769 22558-1094 32622-7158-1646-13943-4247-20402-7682-80 1739-506 3686-1362 5845l13182 45750c10210-21454 20815-42761 23228-67111-4050-5195-8316-12052-12019-18005-1112-1788-2172-3492-3169-5055zm-73070-8300l38-122h-1l-37 123zm-19743-77914l6478 17760c705 2066 914 3863 632 5398l65-52c10150 11247 22659 19384 37701 24181 770-1724 1815-3259 3355-4450 4586-3549 18035-3220 22193 224 3480 2882 3536 9491 957 12945-5367 7189-27728 1135-35211-1270-11944-3839-22809-13105-32707-21407l10176 16181c5991 9528 12272 19236 20077 26374 7504 6861 16613 11505 28650 11535 13040 33 22578-4794 30317-12039 8052-7537 14403-17867 20662-28177l16829-27721c3137-7156 4281-11950 3562-14757-427-1673-2271-2491-5420-2650-667-33-1354-40-2049-21-750 23-1535 72-2352 147-448 40-883 9-1298-84-1497 82-3040-21-4615-253l5764-25506c-42766 6741-74756-25023-119964-6353l3259 30069c-1826 82-3550 21-5152-222v2c-669 26-1306 74-1910 145z" fill-rule="nonzero"/></svg>