<svg xmlns="http://www.w3.org/2000/svg" viewBox="0 0 245652 333333" shape-rendering="geometricPrecision" text-rendering="geometricPrecision" image-rendering="optimizeQuality" fill-rule="evenodd" clip-rule="evenodd"><path d="M190108 247162h50644c2696 0 4900 2209 4900 4900v76372c0 2691-2209 4900-4900 4900h-50644c-2691 0-4900-2204-4900-4900v-76372c0-2690 2204-4900 4900-4900zM41512 22718c59712-41279 64172 40420 122816-10589v83242c-55931 50295-67996-30966-122816 10330V22718zM26764 0c6293 0 11394 5105 11394 11394 0 4179-2250 7828-5601 9812l537-1v100943h22448c2697 0 4900 2204 4900 4900v201385c0 2696-2204 4900-4900 4900H4899c-2696 0-4900-2204-4900-4900V127050c0-2698 2204-4900 4900-4900v-2h15535V21205h537c-3351-1983-5601-5632-5601-9811C15370 5104 20472 0 26764 0zm70740 180964h50639c2696 0 4900 2204 4900 4900v142569c0 2691-2209 4900-4900 4900H97504c-2691 0-4900-2204-4900-4900V185864c0-2696 2204-4900 4900-4900z" fill-rule="nonzero"/></svg>